<mxfile>
    <diagram id="sn749aYxekATm3JQqFSO" name="Page-1">
        <mxGraphModel dx="3703" dy="4166" grid="1" gridSize="10" guides="1" tooltips="1" connect="1" arrows="1" fold="1" page="0" pageScale="1" pageWidth="850" pageHeight="1100" math="0" shadow="0">
            <root>
                <mxCell id="0"/>
                <mxCell id="1" parent="0" visible="0"/>
                <mxCell id="36" value="" style="group" vertex="1" connectable="0" parent="1">
                    <mxGeometry x="10" y="-2560" width="500" height="270" as="geometry"/>
                </mxCell>
                <mxCell id="35" value="&lt;pre class=&quot;language-javascript line-numbers&quot; style=&quot;box-sizing: border-box ; font-family: &amp;#34;consolas&amp;#34; , &amp;#34;monaco&amp;#34; , &amp;#34;andale mono&amp;#34; , &amp;#34;ubuntu mono&amp;#34; , monospace ; font-size: 16px ; margin-top: 0.5em ; margin-bottom: 0.5em ; overflow: auto ; color: rgb(204 , 204 , 204) ; border-radius: 10px ; background: rgb(45 , 45 , 45) ; text-align: left ; word-break: normal ; overflow-wrap: normal ; line-height: 1.5 ; padding: 1em 1em 1em 3.8em ; position: relative&quot;&gt;&lt;code class=&quot;language-javascript&quot; style=&quot;box-sizing: border-box ; font-family: &amp;#34;consolas&amp;#34; , &amp;#34;monaco&amp;#34; , &amp;#34;andale mono&amp;#34; , &amp;#34;ubuntu mono&amp;#34; , monospace ; font-size: 1em ; color: rgb(204 , 204 , 204) ; overflow-wrap: normal ; word-break: normal ; background: none ; word-spacing: normal ; line-height: 1.5 ; position: relative&quot;&gt;app&lt;span class=&quot;token punctuation&quot; style=&quot;box-sizing: border-box&quot;&gt;.&lt;/span&gt;&lt;span class=&quot;token function&quot; style=&quot;box-sizing: border-box ; color: rgb(240 , 141 , 73)&quot;&gt;post&lt;/span&gt;&lt;span class=&quot;token punctuation&quot; style=&quot;box-sizing: border-box&quot;&gt;(&lt;/span&gt;&lt;br/&gt;  &lt;span class=&quot;token string&quot; style=&quot;box-sizing: border-box ; color: rgb(126 , 198 , 153)&quot;&gt;&quot;/log-in&quot;&lt;/span&gt;&lt;span class=&quot;token punctuation&quot; style=&quot;box-sizing: border-box&quot;&gt;,&lt;/span&gt;&lt;br/&gt;  passport&lt;span class=&quot;token punctuation&quot; style=&quot;box-sizing: border-box&quot;&gt;.&lt;/span&gt;&lt;span class=&quot;token function&quot; style=&quot;box-sizing: border-box ; color: rgb(240 , 141 , 73)&quot;&gt;authenticate&lt;/span&gt;&lt;span class=&quot;token punctuation&quot; style=&quot;box-sizing: border-box&quot;&gt;(&lt;/span&gt;&lt;span class=&quot;token string&quot; style=&quot;box-sizing: border-box ; color: rgb(126 , 198 , 153)&quot;&gt;&quot;local&quot;&lt;/span&gt;&lt;span class=&quot;token punctuation&quot; style=&quot;box-sizing: border-box&quot;&gt;,&lt;/span&gt; &lt;span class=&quot;token punctuation&quot; style=&quot;box-sizing: border-box&quot;&gt;{&lt;/span&gt;&lt;br/&gt;    successRedirect&lt;span class=&quot;token operator&quot; style=&quot;box-sizing: border-box ; color: rgb(103 , 205 , 204)&quot;&gt;:&lt;/span&gt; &lt;span class=&quot;token string&quot; style=&quot;box-sizing: border-box ; color: rgb(126 , 198 , 153)&quot;&gt;&quot;/&quot;&lt;/span&gt;&lt;span class=&quot;token punctuation&quot; style=&quot;box-sizing: border-box&quot;&gt;,&lt;/span&gt;&lt;br/&gt;    failureRedirect&lt;span class=&quot;token operator&quot; style=&quot;box-sizing: border-box ; color: rgb(103 , 205 , 204)&quot;&gt;:&lt;/span&gt; &lt;span class=&quot;token string&quot; style=&quot;box-sizing: border-box ; color: rgb(126 , 198 , 153)&quot;&gt;&quot;/&quot;&lt;/span&gt;&lt;br/&gt;  &lt;span class=&quot;token punctuation&quot; style=&quot;box-sizing: border-box&quot;&gt;}&lt;/span&gt;&lt;span class=&quot;token punctuation&quot; style=&quot;box-sizing: border-box&quot;&gt;)&lt;/span&gt;&lt;br/&gt;&lt;span class=&quot;token punctuation&quot; style=&quot;box-sizing: border-box&quot;&gt;)&lt;/span&gt;&lt;span class=&quot;token punctuation&quot; style=&quot;box-sizing: border-box&quot;&gt;;&lt;/span&gt;&lt;/code&gt;&lt;/pre&gt;" style="text;html=1;align=center;verticalAlign=middle;resizable=0;points=[];autosize=1;fontSize=25;" vertex="1" parent="36">
                    <mxGeometry x="55" y="50" width="390" height="220" as="geometry"/>
                </mxCell>
                <mxCell id="32" value="Login Route" style="swimlane;fontStyle=1;align=center;verticalAlign=top;childLayout=stackLayout;horizontal=1;startSize=50;horizontalStack=0;resizeParent=1;resizeParentMax=0;resizeLast=0;collapsible=1;marginBottom=0;rounded=1;fontSize=25;arcSize=0;" vertex="1" parent="36">
                    <mxGeometry width="500" height="270" as="geometry">
                        <mxRectangle x="1220" y="-1300" width="210" height="70" as="alternateBounds"/>
                    </mxGeometry>
                </mxCell>
                <mxCell id="17" value="Middleware Setup" style="swimlane;fontStyle=1;align=center;verticalAlign=top;childLayout=stackLayout;horizontal=1;startSize=50;horizontalStack=0;resizeParent=1;resizeParentMax=0;resizeLast=0;collapsible=1;marginBottom=0;rounded=1;fontSize=25;arcSize=0;" vertex="1" collapsed="1" parent="1">
                    <mxGeometry x="110" y="-1320" width="210" height="70" as="geometry">
                        <mxRectangle x="110" y="-1320" width="820" height="290" as="alternateBounds"/>
                    </mxGeometry>
                </mxCell>
                <mxCell id="8" value="" style="group" vertex="1" connectable="0" parent="17">
                    <mxGeometry y="50" width="210" height="240" as="geometry"/>
                </mxCell>
                <mxCell id="4" value="&lt;div style=&quot;color: rgb(212 , 212 , 212) ; background-color: rgb(30 , 30 , 30) ; font-family: &amp;#34;consolas&amp;#34; , &amp;#34;courier new&amp;#34; , monospace ; font-weight: normal ; font-size: 14px ; line-height: 19px&quot;&gt;&lt;pre class=&quot;language-javascript line-numbers&quot; style=&quot;box-sizing: border-box ; font-family: &amp;#34;consolas&amp;#34; , &amp;#34;monaco&amp;#34; , &amp;#34;andale mono&amp;#34; , &amp;#34;ubuntu mono&amp;#34; , monospace ; font-size: 16px ; margin-top: 0.5em ; margin-bottom: 0.5em ; overflow: auto ; color: rgb(204 , 204 , 204) ; border-radius: 10px ; background: rgb(45 , 45 , 45) ; word-break: normal ; overflow-wrap: normal ; line-height: 1.5 ; padding: 1em 1em 1em 3.8em ; position: relative&quot;&gt;&lt;code class=&quot;language-javascript&quot; style=&quot;box-sizing: border-box ; font-family: &amp;#34;consolas&amp;#34; , &amp;#34;monaco&amp;#34; , &amp;#34;andale mono&amp;#34; , &amp;#34;ubuntu mono&amp;#34; , monospace ; font-size: 1em ; color: rgb(204 , 204 , 204) ; overflow-wrap: normal ; word-break: normal ; background: none ; word-spacing: normal ; line-height: 1.5 ; position: relative&quot;&gt;app&lt;span class=&quot;token punctuation&quot; style=&quot;box-sizing: border-box&quot;&gt;.&lt;/span&gt;&lt;span class=&quot;token function&quot; style=&quot;box-sizing: border-box ; color: rgb(240 , 141 , 73)&quot;&gt;use&lt;/span&gt;&lt;span class=&quot;token punctuation&quot; style=&quot;box-sizing: border-box&quot;&gt;(&lt;/span&gt;&lt;span class=&quot;token function&quot; style=&quot;box-sizing: border-box ; color: rgb(240 , 141 , 73)&quot;&gt;session&lt;/span&gt;&lt;span class=&quot;token punctuation&quot; style=&quot;box-sizing: border-box&quot;&gt;(&lt;/span&gt;&lt;span class=&quot;token punctuation&quot; style=&quot;box-sizing: border-box&quot;&gt;{&lt;/span&gt; secret&lt;span class=&quot;token operator&quot; style=&quot;box-sizing: border-box ; color: rgb(103 , 205 , 204)&quot;&gt;:&lt;/span&gt; &lt;span class=&quot;token string&quot; style=&quot;box-sizing: border-box ; color: rgb(126 , 198 , 153)&quot;&gt;&quot;cats&quot;&lt;/span&gt;&lt;span class=&quot;token punctuation&quot; style=&quot;box-sizing: border-box&quot;&gt;,&lt;/span&gt; resave&lt;span class=&quot;token operator&quot; style=&quot;box-sizing: border-box ; color: rgb(103 , 205 , 204)&quot;&gt;:&lt;/span&gt; &lt;span class=&quot;token boolean&quot; style=&quot;box-sizing: border-box ; color: rgb(240 , 141 , 73)&quot;&gt;false&lt;/span&gt;&lt;span class=&quot;token punctuation&quot; style=&quot;box-sizing: border-box&quot;&gt;,&lt;/span&gt; saveUninitialized&lt;span class=&quot;token operator&quot; style=&quot;box-sizing: border-box ; color: rgb(103 , 205 , 204)&quot;&gt;:&lt;/span&gt; &lt;span class=&quot;token boolean&quot; style=&quot;box-sizing: border-box ; color: rgb(240 , 141 , 73)&quot;&gt;true&lt;/span&gt; &lt;span class=&quot;token punctuation&quot; style=&quot;box-sizing: border-box&quot;&gt;}&lt;/span&gt;&lt;span class=&quot;token punctuation&quot; style=&quot;box-sizing: border-box&quot;&gt;)&lt;/span&gt;&lt;span class=&quot;token punctuation&quot; style=&quot;box-sizing: border-box&quot;&gt;)&lt;/span&gt;&lt;span class=&quot;token punctuation&quot; style=&quot;box-sizing: border-box&quot;&gt;;&lt;/span&gt;&lt;br/&gt;app&lt;span class=&quot;token punctuation&quot; style=&quot;box-sizing: border-box&quot;&gt;.&lt;/span&gt;&lt;span class=&quot;token function&quot; style=&quot;box-sizing: border-box ; color: rgb(240 , 141 , 73)&quot;&gt;use&lt;/span&gt;&lt;span class=&quot;token punctuation&quot; style=&quot;box-sizing: border-box&quot;&gt;(&lt;/span&gt;passport&lt;span class=&quot;token punctuation&quot; style=&quot;box-sizing: border-box&quot;&gt;.&lt;/span&gt;&lt;span class=&quot;token function&quot; style=&quot;box-sizing: border-box ; color: rgb(240 , 141 , 73)&quot;&gt;initialize&lt;/span&gt;&lt;span class=&quot;token punctuation&quot; style=&quot;box-sizing: border-box&quot;&gt;(&lt;/span&gt;&lt;span class=&quot;token punctuation&quot; style=&quot;box-sizing: border-box&quot;&gt;)&lt;/span&gt;&lt;span class=&quot;token punctuation&quot; style=&quot;box-sizing: border-box&quot;&gt;)&lt;/span&gt;&lt;span class=&quot;token punctuation&quot; style=&quot;box-sizing: border-box&quot;&gt;;&lt;/span&gt;&lt;br/&gt;app&lt;span class=&quot;token punctuation&quot; style=&quot;box-sizing: border-box&quot;&gt;.&lt;/span&gt;&lt;span class=&quot;token function&quot; style=&quot;box-sizing: border-box ; color: rgb(240 , 141 , 73)&quot;&gt;use&lt;/span&gt;&lt;span class=&quot;token punctuation&quot; style=&quot;box-sizing: border-box&quot;&gt;(&lt;/span&gt;passport&lt;span class=&quot;token punctuation&quot; style=&quot;box-sizing: border-box&quot;&gt;.&lt;/span&gt;&lt;span class=&quot;token function&quot; style=&quot;box-sizing: border-box ; color: rgb(240 , 141 , 73)&quot;&gt;session&lt;/span&gt;&lt;span class=&quot;token punctuation&quot; style=&quot;box-sizing: border-box&quot;&gt;(&lt;/span&gt;&lt;span class=&quot;token punctuation&quot; style=&quot;box-sizing: border-box&quot;&gt;)&lt;/span&gt;&lt;span class=&quot;token punctuation&quot; style=&quot;box-sizing: border-box&quot;&gt;)&lt;/span&gt;&lt;span class=&quot;token punctuation&quot; style=&quot;box-sizing: border-box&quot;&gt;;&lt;/span&gt;&lt;/code&gt;&lt;/pre&gt;&lt;/div&gt;" style="text;whiteSpace=wrap;html=1;rounded=1;arcSize=50;" vertex="1" parent="8">
                    <mxGeometry x="16.670000000000016" y="38" width="433.33" height="130" as="geometry"/>
                </mxCell>
                <mxCell id="23" value="Create New User" style="swimlane;fontStyle=1;align=center;verticalAlign=top;childLayout=stackLayout;horizontal=1;startSize=50;horizontalStack=0;resizeParent=1;resizeParentMax=0;resizeLast=0;collapsible=1;marginBottom=0;rounded=1;fontSize=25;arcSize=0;" vertex="1" collapsed="1" parent="1">
                    <mxGeometry x="620" y="-1430" width="210" height="70" as="geometry">
                        <mxRectangle x="430" y="-1320" width="550" height="370" as="alternateBounds"/>
                    </mxGeometry>
                </mxCell>
                <mxCell id="26" value="&lt;pre class=&quot;language-javascript line-numbers&quot; style=&quot;box-sizing: border-box ; font-family: &amp;#34;consolas&amp;#34; , &amp;#34;monaco&amp;#34; , &amp;#34;andale mono&amp;#34; , &amp;#34;ubuntu mono&amp;#34; , monospace ; font-size: 16px ; margin-top: 0.5em ; margin-bottom: 0.5em ; overflow: auto ; color: rgb(204 , 204 , 204) ; border-radius: 10px ; background: rgb(45 , 45 , 45) ; text-align: left ; word-break: normal ; overflow-wrap: normal ; line-height: 1.5 ; padding: 1em 1em 1em 3.8em ; position: relative&quot;&gt;&lt;code class=&quot;language-javascript&quot; style=&quot;box-sizing: border-box ; font-family: &amp;#34;consolas&amp;#34; , &amp;#34;monaco&amp;#34; , &amp;#34;andale mono&amp;#34; , &amp;#34;ubuntu mono&amp;#34; , monospace ; font-size: 1em ; color: rgb(204 , 204 , 204) ; overflow-wrap: normal ; word-break: normal ; background: none ; word-spacing: normal ; line-height: 1.5 ; position: relative&quot;&gt;app&lt;span class=&quot;token punctuation&quot; style=&quot;box-sizing: border-box&quot;&gt;.&lt;/span&gt;&lt;span class=&quot;token function&quot; style=&quot;box-sizing: border-box ; color: rgb(240 , 141 , 73)&quot;&gt;post&lt;/span&gt;&lt;span class=&quot;token punctuation&quot; style=&quot;box-sizing: border-box&quot;&gt;(&lt;/span&gt;&lt;span class=&quot;token string&quot; style=&quot;box-sizing: border-box ; color: rgb(126 , 198 , 153)&quot;&gt;&quot;/sign-up&quot;&lt;/span&gt;&lt;span class=&quot;token punctuation&quot; style=&quot;box-sizing: border-box&quot;&gt;,&lt;/span&gt; &lt;span class=&quot;token punctuation&quot; style=&quot;box-sizing: border-box&quot;&gt;(&lt;/span&gt;&lt;span class=&quot;token parameter&quot; style=&quot;box-sizing: border-box&quot;&gt;req&lt;span class=&quot;token punctuation&quot; style=&quot;box-sizing: border-box&quot;&gt;,&lt;/span&gt; res&lt;span class=&quot;token punctuation&quot; style=&quot;box-sizing: border-box&quot;&gt;,&lt;/span&gt; next&lt;/span&gt;&lt;span class=&quot;token punctuation&quot; style=&quot;box-sizing: border-box&quot;&gt;)&lt;/span&gt; &lt;span class=&quot;token operator&quot; style=&quot;box-sizing: border-box ; color: rgb(103 , 205 , 204)&quot;&gt;=&amp;gt;&lt;/span&gt; &lt;span class=&quot;token punctuation&quot; style=&quot;box-sizing: border-box&quot;&gt;{&lt;/span&gt;&lt;br/&gt;  &lt;span class=&quot;token keyword&quot; style=&quot;box-sizing: border-box ; color: rgb(204 , 153 , 205)&quot;&gt;const&lt;/span&gt; user &lt;span class=&quot;token operator&quot; style=&quot;box-sizing: border-box ; color: rgb(103 , 205 , 204)&quot;&gt;=&lt;/span&gt; &lt;span class=&quot;token keyword&quot; style=&quot;box-sizing: border-box ; color: rgb(204 , 153 , 205)&quot;&gt;new&lt;/span&gt; &lt;span class=&quot;token class-name&quot; style=&quot;box-sizing: border-box ; color: rgb(248 , 197 , 85)&quot;&gt;User&lt;/span&gt;&lt;span class=&quot;token punctuation&quot; style=&quot;box-sizing: border-box&quot;&gt;(&lt;/span&gt;&lt;span class=&quot;token punctuation&quot; style=&quot;box-sizing: border-box&quot;&gt;{&lt;/span&gt;&lt;br/&gt;    username&lt;span class=&quot;token operator&quot; style=&quot;box-sizing: border-box ; color: rgb(103 , 205 , 204)&quot;&gt;:&lt;/span&gt; req&lt;span class=&quot;token punctuation&quot; style=&quot;box-sizing: border-box&quot;&gt;.&lt;/span&gt;body&lt;span class=&quot;token punctuation&quot; style=&quot;box-sizing: border-box&quot;&gt;.&lt;/span&gt;username&lt;span class=&quot;token punctuation&quot; style=&quot;box-sizing: border-box&quot;&gt;,&lt;/span&gt;&lt;br/&gt;    password&lt;span class=&quot;token operator&quot; style=&quot;box-sizing: border-box ; color: rgb(103 , 205 , 204)&quot;&gt;:&lt;/span&gt; req&lt;span class=&quot;token punctuation&quot; style=&quot;box-sizing: border-box&quot;&gt;.&lt;/span&gt;body&lt;span class=&quot;token punctuation&quot; style=&quot;box-sizing: border-box&quot;&gt;.&lt;/span&gt;password&lt;br/&gt;  &lt;span class=&quot;token punctuation&quot; style=&quot;box-sizing: border-box&quot;&gt;}&lt;/span&gt;&lt;span class=&quot;token punctuation&quot; style=&quot;box-sizing: border-box&quot;&gt;)&lt;/span&gt;&lt;span class=&quot;token punctuation&quot; style=&quot;box-sizing: border-box&quot;&gt;.&lt;/span&gt;&lt;span class=&quot;token function&quot; style=&quot;box-sizing: border-box ; color: rgb(240 , 141 , 73)&quot;&gt;save&lt;/span&gt;&lt;span class=&quot;token punctuation&quot; style=&quot;box-sizing: border-box&quot;&gt;(&lt;/span&gt;&lt;span class=&quot;token parameter&quot; style=&quot;box-sizing: border-box&quot;&gt;err&lt;/span&gt; &lt;span class=&quot;token operator&quot; style=&quot;box-sizing: border-box ; color: rgb(103 , 205 , 204)&quot;&gt;=&amp;gt;&lt;/span&gt; &lt;span class=&quot;token punctuation&quot; style=&quot;box-sizing: border-box&quot;&gt;{&lt;/span&gt;&lt;br/&gt;    &lt;span class=&quot;token keyword&quot; style=&quot;box-sizing: border-box ; color: rgb(204 , 153 , 205)&quot;&gt;if&lt;/span&gt; &lt;span class=&quot;token punctuation&quot; style=&quot;box-sizing: border-box&quot;&gt;(&lt;/span&gt;err&lt;span class=&quot;token punctuation&quot; style=&quot;box-sizing: border-box&quot;&gt;)&lt;/span&gt; &lt;span class=&quot;token punctuation&quot; style=&quot;box-sizing: border-box&quot;&gt;{&lt;/span&gt; &lt;br/&gt;      &lt;span class=&quot;token keyword&quot; style=&quot;box-sizing: border-box ; color: rgb(204 , 153 , 205)&quot;&gt;return&lt;/span&gt; &lt;span class=&quot;token function&quot; style=&quot;box-sizing: border-box ; color: rgb(240 , 141 , 73)&quot;&gt;next&lt;/span&gt;&lt;span class=&quot;token punctuation&quot; style=&quot;box-sizing: border-box&quot;&gt;(&lt;/span&gt;err&lt;span class=&quot;token punctuation&quot; style=&quot;box-sizing: border-box&quot;&gt;)&lt;/span&gt;&lt;span class=&quot;token punctuation&quot; style=&quot;box-sizing: border-box&quot;&gt;;&lt;/span&gt;&lt;br/&gt;    &lt;span class=&quot;token punctuation&quot; style=&quot;box-sizing: border-box&quot;&gt;}&lt;/span&gt;&lt;span class=&quot;token punctuation&quot; style=&quot;box-sizing: border-box&quot;&gt;;&lt;/span&gt;&lt;br/&gt;    res&lt;span class=&quot;token punctuation&quot; style=&quot;box-sizing: border-box&quot;&gt;.&lt;/span&gt;&lt;span class=&quot;token function&quot; style=&quot;box-sizing: border-box ; color: rgb(240 , 141 , 73)&quot;&gt;redirect&lt;/span&gt;&lt;span class=&quot;token punctuation&quot; style=&quot;box-sizing: border-box&quot;&gt;(&lt;/span&gt;&lt;span class=&quot;token string&quot; style=&quot;box-sizing: border-box ; color: rgb(126 , 198 , 153)&quot;&gt;&quot;/&quot;&lt;/span&gt;&lt;span class=&quot;token punctuation&quot; style=&quot;box-sizing: border-box&quot;&gt;)&lt;/span&gt;&lt;span class=&quot;token punctuation&quot; style=&quot;box-sizing: border-box&quot;&gt;;&lt;/span&gt;&lt;br/&gt;  &lt;span class=&quot;token punctuation&quot; style=&quot;box-sizing: border-box&quot;&gt;}&lt;/span&gt;&lt;span class=&quot;token punctuation&quot; style=&quot;box-sizing: border-box&quot;&gt;)&lt;/span&gt;&lt;span class=&quot;token punctuation&quot; style=&quot;box-sizing: border-box&quot;&gt;;&lt;/span&gt;&lt;br/&gt;&lt;span class=&quot;token punctuation&quot; style=&quot;box-sizing: border-box&quot;&gt;}&lt;/span&gt;&lt;span class=&quot;token punctuation&quot; style=&quot;box-sizing: border-box&quot;&gt;)&lt;/span&gt;&lt;span class=&quot;token punctuation&quot; style=&quot;box-sizing: border-box&quot;&gt;;&lt;/span&gt;&lt;/code&gt;&lt;/pre&gt;" style="text;html=1;align=center;verticalAlign=middle;resizable=0;points=[];autosize=1;fontSize=25;" vertex="1" parent="23">
                    <mxGeometry y="50" width="210" height="320" as="geometry"/>
                </mxCell>
                <mxCell id="27" value="Authentication: Setting up LocalStrategy " style="swimlane;fontStyle=1;align=center;verticalAlign=top;childLayout=stackLayout;horizontal=1;startSize=50;horizontalStack=0;resizeParent=1;resizeParentMax=0;resizeLast=0;collapsible=1;marginBottom=0;rounded=1;fontSize=25;arcSize=0;" vertex="1" parent="1">
                    <mxGeometry x="1810" y="-1670" width="760" height="540" as="geometry">
                        <mxRectangle x="150" y="-1220" width="520" height="70" as="alternateBounds"/>
                    </mxGeometry>
                </mxCell>
                <mxCell id="30" value="Serialization and deSerialization" style="swimlane;fontStyle=1;align=center;verticalAlign=top;childLayout=stackLayout;horizontal=1;startSize=50;horizontalStack=0;resizeParent=1;resizeParentMax=0;resizeLast=0;collapsible=1;marginBottom=0;rounded=1;fontSize=25;arcSize=0;" vertex="1" collapsed="1" parent="1">
                    <mxGeometry x="550" y="-1120" width="420" height="70" as="geometry">
                        <mxRectangle x="910" y="-1080" width="590" height="370" as="alternateBounds"/>
                    </mxGeometry>
                </mxCell>
                <mxCell id="31" value="&lt;pre class=&quot;language-javascript line-numbers&quot; style=&quot;box-sizing: border-box ; font-family: &amp;#34;consolas&amp;#34; , &amp;#34;monaco&amp;#34; , &amp;#34;andale mono&amp;#34; , &amp;#34;ubuntu mono&amp;#34; , monospace ; font-size: 16px ; margin-top: 0.5em ; margin-bottom: 0.5em ; overflow: auto ; color: rgb(204 , 204 , 204) ; border-radius: 10px ; background: rgb(45 , 45 , 45) ; text-align: left ; word-break: normal ; overflow-wrap: normal ; line-height: 1.5 ; padding: 1em 1em 1em 3.8em ; position: relative&quot;&gt;&lt;pre class=&quot;language-javascript line-numbers&quot; style=&quot;box-sizing: border-box ; font-family: &amp;#34;consolas&amp;#34; , &amp;#34;monaco&amp;#34; , &amp;#34;andale mono&amp;#34; , &amp;#34;ubuntu mono&amp;#34; , monospace ; margin-top: 0.5em ; margin-bottom: 0.5em ; overflow: auto ; border-radius: 10px ; word-break: normal ; overflow-wrap: normal ; line-height: 1.5 ; padding: 1em 1em 1em 3.8em ; position: relative&quot;&gt;&lt;code class=&quot;language-javascript&quot; style=&quot;box-sizing: border-box ; font-family: &amp;#34;consolas&amp;#34; , &amp;#34;monaco&amp;#34; , &amp;#34;andale mono&amp;#34; , &amp;#34;ubuntu mono&amp;#34; , monospace ; font-size: 1em ; color: rgb(204 , 204 , 204) ; overflow-wrap: normal ; word-break: normal ; background: none ; word-spacing: normal ; line-height: 1.5 ; position: relative&quot;&gt;passport&lt;span class=&quot;token punctuation&quot; style=&quot;box-sizing: border-box&quot;&gt;.&lt;/span&gt;&lt;span class=&quot;token function&quot; style=&quot;box-sizing: border-box ; color: rgb(240 , 141 , 73)&quot;&gt;serializeUser&lt;/span&gt;&lt;span class=&quot;token punctuation&quot; style=&quot;box-sizing: border-box&quot;&gt;(&lt;/span&gt;&lt;span class=&quot;token keyword&quot; style=&quot;box-sizing: border-box ; color: rgb(204 , 153 , 205)&quot;&gt;function&lt;/span&gt;&lt;span class=&quot;token punctuation&quot; style=&quot;box-sizing: border-box&quot;&gt;(&lt;/span&gt;&lt;span class=&quot;token parameter&quot; style=&quot;box-sizing: border-box&quot;&gt;user&lt;span class=&quot;token punctuation&quot; style=&quot;box-sizing: border-box&quot;&gt;,&lt;/span&gt; done&lt;/span&gt;&lt;span class=&quot;token punctuation&quot; style=&quot;box-sizing: border-box&quot;&gt;)&lt;/span&gt; &lt;span class=&quot;token punctuation&quot; style=&quot;box-sizing: border-box&quot;&gt;{&lt;/span&gt;&lt;br/&gt;  &lt;span class=&quot;token function&quot; style=&quot;box-sizing: border-box ; color: rgb(240 , 141 , 73)&quot;&gt;done&lt;/span&gt;&lt;span class=&quot;token punctuation&quot; style=&quot;box-sizing: border-box&quot;&gt;(&lt;/span&gt;&lt;span class=&quot;token keyword&quot; style=&quot;box-sizing: border-box ; color: rgb(204 , 153 , 205)&quot;&gt;null&lt;/span&gt;&lt;span class=&quot;token punctuation&quot; style=&quot;box-sizing: border-box&quot;&gt;,&lt;/span&gt; user&lt;span class=&quot;token punctuation&quot; style=&quot;box-sizing: border-box&quot;&gt;.&lt;/span&gt;id&lt;span class=&quot;token punctuation&quot; style=&quot;box-sizing: border-box&quot;&gt;)&lt;/span&gt;&lt;span class=&quot;token punctuation&quot; style=&quot;box-sizing: border-box&quot;&gt;;&lt;/span&gt;&lt;br/&gt;&lt;span class=&quot;token punctuation&quot; style=&quot;box-sizing: border-box&quot;&gt;}&lt;/span&gt;&lt;span class=&quot;token punctuation&quot; style=&quot;box-sizing: border-box&quot;&gt;)&lt;/span&gt;&lt;span class=&quot;token punctuation&quot; style=&quot;box-sizing: border-box&quot;&gt;;&lt;/span&gt;&lt;br/&gt;&lt;br/&gt;passport&lt;span class=&quot;token punctuation&quot; style=&quot;box-sizing: border-box&quot;&gt;.&lt;/span&gt;&lt;span class=&quot;token function&quot; style=&quot;box-sizing: border-box ; color: rgb(240 , 141 , 73)&quot;&gt;deserializeUser&lt;/span&gt;&lt;span class=&quot;token punctuation&quot; style=&quot;box-sizing: border-box&quot;&gt;(&lt;/span&gt;&lt;span class=&quot;token keyword&quot; style=&quot;box-sizing: border-box ; color: rgb(204 , 153 , 205)&quot;&gt;function&lt;/span&gt;&lt;span class=&quot;token punctuation&quot; style=&quot;box-sizing: border-box&quot;&gt;(&lt;/span&gt;&lt;span class=&quot;token parameter&quot; style=&quot;box-sizing: border-box&quot;&gt;id&lt;span class=&quot;token punctuation&quot; style=&quot;box-sizing: border-box&quot;&gt;,&lt;/span&gt; done&lt;/span&gt;&lt;span class=&quot;token punctuation&quot; style=&quot;box-sizing: border-box&quot;&gt;)&lt;/span&gt; &lt;span class=&quot;token punctuation&quot; style=&quot;box-sizing: border-box&quot;&gt;{&lt;/span&gt;&lt;br/&gt;  User&lt;span class=&quot;token punctuation&quot; style=&quot;box-sizing: border-box&quot;&gt;.&lt;/span&gt;&lt;span class=&quot;token function&quot; style=&quot;box-sizing: border-box ; color: rgb(240 , 141 , 73)&quot;&gt;findById&lt;/span&gt;&lt;span class=&quot;token punctuation&quot; style=&quot;box-sizing: border-box&quot;&gt;(&lt;/span&gt;id&lt;span class=&quot;token punctuation&quot; style=&quot;box-sizing: border-box&quot;&gt;,&lt;/span&gt; &lt;span class=&quot;token keyword&quot; style=&quot;box-sizing: border-box ; color: rgb(204 , 153 , 205)&quot;&gt;function&lt;/span&gt;&lt;span class=&quot;token punctuation&quot; style=&quot;box-sizing: border-box&quot;&gt;(&lt;/span&gt;&lt;span class=&quot;token parameter&quot; style=&quot;box-sizing: border-box&quot;&gt;err&lt;span class=&quot;token punctuation&quot; style=&quot;box-sizing: border-box&quot;&gt;,&lt;/span&gt; user&lt;/span&gt;&lt;span class=&quot;token punctuation&quot; style=&quot;box-sizing: border-box&quot;&gt;)&lt;/span&gt; &lt;span class=&quot;token punctuation&quot; style=&quot;box-sizing: border-box&quot;&gt;{&lt;/span&gt;&lt;br/&gt;    &lt;span class=&quot;token function&quot; style=&quot;box-sizing: border-box ; color: rgb(240 , 141 , 73)&quot;&gt;done&lt;/span&gt;&lt;span class=&quot;token punctuation&quot; style=&quot;box-sizing: border-box&quot;&gt;(&lt;/span&gt;err&lt;span class=&quot;token punctuation&quot; style=&quot;box-sizing: border-box&quot;&gt;,&lt;/span&gt; user&lt;span class=&quot;token punctuation&quot; style=&quot;box-sizing: border-box&quot;&gt;)&lt;/span&gt;&lt;span class=&quot;token punctuation&quot; style=&quot;box-sizing: border-box&quot;&gt;;&lt;/span&gt;&lt;br/&gt;  &lt;span class=&quot;token punctuation&quot; style=&quot;box-sizing: border-box&quot;&gt;}&lt;/span&gt;&lt;span class=&quot;token punctuation&quot; style=&quot;box-sizing: border-box&quot;&gt;)&lt;/span&gt;&lt;span class=&quot;token punctuation&quot; style=&quot;box-sizing: border-box&quot;&gt;;&lt;/span&gt;&lt;br/&gt;&lt;span class=&quot;token punctuation&quot; style=&quot;box-sizing: border-box&quot;&gt;}&lt;/span&gt;&lt;span class=&quot;token punctuation&quot; style=&quot;box-sizing: border-box&quot;&gt;)&lt;/span&gt;&lt;span class=&quot;token punctuation&quot; style=&quot;box-sizing: border-box&quot;&gt;;&lt;/span&gt;&lt;/code&gt;&lt;/pre&gt;&lt;/pre&gt;" style="text;html=1;align=center;verticalAlign=middle;resizable=0;points=[];autosize=1;fontSize=25;" vertex="1" parent="30">
                    <mxGeometry y="50" width="420" height="320" as="geometry"/>
                </mxCell>
                <mxCell id="28" value="&lt;pre class=&quot;language-javascript line-numbers&quot; style=&quot;box-sizing: border-box ; font-family: &amp;#34;consolas&amp;#34; , &amp;#34;monaco&amp;#34; , &amp;#34;andale mono&amp;#34; , &amp;#34;ubuntu mono&amp;#34; , monospace ; font-size: 16px ; margin-top: 0.5em ; margin-bottom: 0.5em ; overflow: auto ; color: rgb(204 , 204 , 204) ; border-radius: 10px ; background: rgb(45 , 45 , 45) ; text-align: left ; word-break: normal ; overflow-wrap: normal ; line-height: 1.5 ; padding: 1em 1em 1em 3.8em ; position: relative&quot;&gt;&lt;pre class=&quot;language-javascript line-numbers&quot; style=&quot;box-sizing: border-box ; font-family: &amp;#34;consolas&amp;#34; , &amp;#34;monaco&amp;#34; , &amp;#34;andale mono&amp;#34; , &amp;#34;ubuntu mono&amp;#34; , monospace ; margin-top: 0.5em ; margin-bottom: 0.5em ; overflow: auto ; border-radius: 10px ; word-break: normal ; overflow-wrap: normal ; line-height: 1.5 ; padding: 1em 1em 1em 3.8em ; position: relative&quot;&gt;&lt;code class=&quot;language-javascript&quot; style=&quot;box-sizing: border-box ; font-family: &amp;#34;consolas&amp;#34; , &amp;#34;monaco&amp;#34; , &amp;#34;andale mono&amp;#34; , &amp;#34;ubuntu mono&amp;#34; , monospace ; font-size: 1em ; color: rgb(204 , 204 , 204) ; overflow-wrap: normal ; word-break: normal ; background: none ; word-spacing: normal ; line-height: 1.5 ; position: relative&quot;&gt;passport&lt;span class=&quot;token punctuation&quot; style=&quot;box-sizing: border-box&quot;&gt;.&lt;/span&gt;&lt;span class=&quot;token function&quot; style=&quot;box-sizing: border-box ; color: rgb(240 , 141 , 73)&quot;&gt;use&lt;/span&gt;&lt;span class=&quot;token punctuation&quot; style=&quot;box-sizing: border-box&quot;&gt;(&lt;/span&gt;&lt;br/&gt;  &lt;span class=&quot;token keyword&quot; style=&quot;box-sizing: border-box ; color: rgb(204 , 153 , 205)&quot;&gt;new&lt;/span&gt; &lt;span class=&quot;token class-name&quot; style=&quot;box-sizing: border-box ; color: rgb(248 , 197 , 85)&quot;&gt;LocalStrategy&lt;/span&gt;&lt;span class=&quot;token punctuation&quot; style=&quot;box-sizing: border-box&quot;&gt;(&lt;/span&gt;&lt;span class=&quot;token punctuation&quot; style=&quot;box-sizing: border-box&quot;&gt;(&lt;/span&gt;&lt;span class=&quot;token parameter&quot; style=&quot;box-sizing: border-box&quot;&gt;username&lt;span class=&quot;token punctuation&quot; style=&quot;box-sizing: border-box&quot;&gt;,&lt;/span&gt; password&lt;span class=&quot;token punctuation&quot; style=&quot;box-sizing: border-box&quot;&gt;,&lt;/span&gt; done&lt;/span&gt;&lt;span class=&quot;token punctuation&quot; style=&quot;box-sizing: border-box&quot;&gt;)&lt;/span&gt; &lt;span class=&quot;token operator&quot; style=&quot;box-sizing: border-box ; color: rgb(103 , 205 , 204)&quot;&gt;=&amp;gt;&lt;/span&gt; &lt;span class=&quot;token punctuation&quot; style=&quot;box-sizing: border-box&quot;&gt;{&lt;/span&gt;&lt;br/&gt;    User&lt;span class=&quot;token punctuation&quot; style=&quot;box-sizing: border-box&quot;&gt;.&lt;/span&gt;&lt;span class=&quot;token function&quot; style=&quot;box-sizing: border-box ; color: rgb(240 , 141 , 73)&quot;&gt;findOne&lt;/span&gt;&lt;span class=&quot;token punctuation&quot; style=&quot;box-sizing: border-box&quot;&gt;(&lt;/span&gt;&lt;span class=&quot;token punctuation&quot; style=&quot;box-sizing: border-box&quot;&gt;{&lt;/span&gt; username&lt;span class=&quot;token operator&quot; style=&quot;box-sizing: border-box ; color: rgb(103 , 205 , 204)&quot;&gt;:&lt;/span&gt; username &lt;span class=&quot;token punctuation&quot; style=&quot;box-sizing: border-box&quot;&gt;}&lt;/span&gt;&lt;span class=&quot;token punctuation&quot; style=&quot;box-sizing: border-box&quot;&gt;,&lt;/span&gt; &lt;span class=&quot;token punctuation&quot; style=&quot;box-sizing: border-box&quot;&gt;(&lt;/span&gt;&lt;span class=&quot;token parameter&quot; style=&quot;box-sizing: border-box&quot;&gt;err&lt;span class=&quot;token punctuation&quot; style=&quot;box-sizing: border-box&quot;&gt;,&lt;/span&gt; user&lt;/span&gt;&lt;span class=&quot;token punctuation&quot; style=&quot;box-sizing: border-box&quot;&gt;)&lt;/span&gt; &lt;span class=&quot;token operator&quot; style=&quot;box-sizing: border-box ; color: rgb(103 , 205 , 204)&quot;&gt;=&amp;gt;&lt;/span&gt; &lt;span class=&quot;token punctuation&quot; style=&quot;box-sizing: border-box&quot;&gt;{&lt;/span&gt;&lt;br/&gt;      &lt;span class=&quot;token keyword&quot; style=&quot;box-sizing: border-box ; color: rgb(204 , 153 , 205)&quot;&gt;if&lt;/span&gt; &lt;span class=&quot;token punctuation&quot; style=&quot;box-sizing: border-box&quot;&gt;(&lt;/span&gt;err&lt;span class=&quot;token punctuation&quot; style=&quot;box-sizing: border-box&quot;&gt;)&lt;/span&gt; &lt;span class=&quot;token punctuation&quot; style=&quot;box-sizing: border-box&quot;&gt;{&lt;/span&gt; &lt;br/&gt;        &lt;span class=&quot;token keyword&quot; style=&quot;box-sizing: border-box ; color: rgb(204 , 153 , 205)&quot;&gt;return&lt;/span&gt; &lt;span class=&quot;token function&quot; style=&quot;box-sizing: border-box ; color: rgb(240 , 141 , 73)&quot;&gt;done&lt;/span&gt;&lt;span class=&quot;token punctuation&quot; style=&quot;box-sizing: border-box&quot;&gt;(&lt;/span&gt;err&lt;span class=&quot;token punctuation&quot; style=&quot;box-sizing: border-box&quot;&gt;)&lt;/span&gt;&lt;span class=&quot;token punctuation&quot; style=&quot;box-sizing: border-box&quot;&gt;;&lt;/span&gt;&lt;br/&gt;      &lt;span class=&quot;token punctuation&quot; style=&quot;box-sizing: border-box&quot;&gt;}&lt;/span&gt;&lt;span class=&quot;token punctuation&quot; style=&quot;box-sizing: border-box&quot;&gt;;&lt;/span&gt;&lt;br/&gt;      &lt;span class=&quot;token keyword&quot; style=&quot;box-sizing: border-box ; color: rgb(204 , 153 , 205)&quot;&gt;if&lt;/span&gt; &lt;span class=&quot;token punctuation&quot; style=&quot;box-sizing: border-box&quot;&gt;(&lt;/span&gt;&lt;span class=&quot;token operator&quot; style=&quot;box-sizing: border-box ; color: rgb(103 , 205 , 204)&quot;&gt;!&lt;/span&gt;user&lt;span class=&quot;token punctuation&quot; style=&quot;box-sizing: border-box&quot;&gt;)&lt;/span&gt; &lt;span class=&quot;token punctuation&quot; style=&quot;box-sizing: border-box&quot;&gt;{&lt;/span&gt;&lt;br/&gt;        &lt;span class=&quot;token keyword&quot; style=&quot;box-sizing: border-box ; color: rgb(204 , 153 , 205)&quot;&gt;return&lt;/span&gt; &lt;span class=&quot;token function&quot; style=&quot;box-sizing: border-box ; color: rgb(240 , 141 , 73)&quot;&gt;done&lt;/span&gt;&lt;span class=&quot;token punctuation&quot; style=&quot;box-sizing: border-box&quot;&gt;(&lt;/span&gt;&lt;span class=&quot;token keyword&quot; style=&quot;box-sizing: border-box ; color: rgb(204 , 153 , 205)&quot;&gt;null&lt;/span&gt;&lt;span class=&quot;token punctuation&quot; style=&quot;box-sizing: border-box&quot;&gt;,&lt;/span&gt; &lt;span class=&quot;token boolean&quot; style=&quot;box-sizing: border-box ; color: rgb(240 , 141 , 73)&quot;&gt;false&lt;/span&gt;&lt;span class=&quot;token punctuation&quot; style=&quot;box-sizing: border-box&quot;&gt;,&lt;/span&gt; &lt;span class=&quot;token punctuation&quot; style=&quot;box-sizing: border-box&quot;&gt;{&lt;/span&gt; message&lt;span class=&quot;token operator&quot; style=&quot;box-sizing: border-box ; color: rgb(103 , 205 , 204)&quot;&gt;:&lt;/span&gt; &lt;span class=&quot;token string&quot; style=&quot;box-sizing: border-box ; color: rgb(126 , 198 , 153)&quot;&gt;&quot;Incorrect username&quot;&lt;/span&gt; &lt;span class=&quot;token punctuation&quot; style=&quot;box-sizing: border-box&quot;&gt;}&lt;/span&gt;&lt;span class=&quot;token punctuation&quot; style=&quot;box-sizing: border-box&quot;&gt;)&lt;/span&gt;&lt;span class=&quot;token punctuation&quot; style=&quot;box-sizing: border-box&quot;&gt;;&lt;/span&gt;&lt;br/&gt;      &lt;span class=&quot;token punctuation&quot; style=&quot;box-sizing: border-box&quot;&gt;}&lt;/span&gt;&lt;br/&gt;      &lt;span class=&quot;token keyword&quot; style=&quot;box-sizing: border-box ; color: rgb(204 , 153 , 205)&quot;&gt;if&lt;/span&gt; &lt;span class=&quot;token punctuation&quot; style=&quot;box-sizing: border-box&quot;&gt;(&lt;/span&gt;user&lt;span class=&quot;token punctuation&quot; style=&quot;box-sizing: border-box&quot;&gt;.&lt;/span&gt;password &lt;span class=&quot;token operator&quot; style=&quot;box-sizing: border-box ; color: rgb(103 , 205 , 204)&quot;&gt;!==&lt;/span&gt; password&lt;span class=&quot;token punctuation&quot; style=&quot;box-sizing: border-box&quot;&gt;)&lt;/span&gt; &lt;span class=&quot;token punctuation&quot; style=&quot;box-sizing: border-box&quot;&gt;{&lt;/span&gt;&lt;br/&gt;        &lt;span class=&quot;token keyword&quot; style=&quot;box-sizing: border-box ; color: rgb(204 , 153 , 205)&quot;&gt;return&lt;/span&gt; &lt;span class=&quot;token function&quot; style=&quot;box-sizing: border-box ; color: rgb(240 , 141 , 73)&quot;&gt;done&lt;/span&gt;&lt;span class=&quot;token punctuation&quot; style=&quot;box-sizing: border-box&quot;&gt;(&lt;/span&gt;&lt;span class=&quot;token keyword&quot; style=&quot;box-sizing: border-box ; color: rgb(204 , 153 , 205)&quot;&gt;null&lt;/span&gt;&lt;span class=&quot;token punctuation&quot; style=&quot;box-sizing: border-box&quot;&gt;,&lt;/span&gt; &lt;span class=&quot;token boolean&quot; style=&quot;box-sizing: border-box ; color: rgb(240 , 141 , 73)&quot;&gt;false&lt;/span&gt;&lt;span class=&quot;token punctuation&quot; style=&quot;box-sizing: border-box&quot;&gt;,&lt;/span&gt; &lt;span class=&quot;token punctuation&quot; style=&quot;box-sizing: border-box&quot;&gt;{&lt;/span&gt; message&lt;span class=&quot;token operator&quot; style=&quot;box-sizing: border-box ; color: rgb(103 , 205 , 204)&quot;&gt;:&lt;/span&gt; &lt;span class=&quot;token string&quot; style=&quot;box-sizing: border-box ; color: rgb(126 , 198 , 153)&quot;&gt;&quot;Incorrect password&quot;&lt;/span&gt; &lt;span class=&quot;token punctuation&quot; style=&quot;box-sizing: border-box&quot;&gt;}&lt;/span&gt;&lt;span class=&quot;token punctuation&quot; style=&quot;box-sizing: border-box&quot;&gt;)&lt;/span&gt;&lt;span class=&quot;token punctuation&quot; style=&quot;box-sizing: border-box&quot;&gt;;&lt;/span&gt;&lt;br/&gt;      &lt;span class=&quot;token punctuation&quot; style=&quot;box-sizing: border-box&quot;&gt;}&lt;/span&gt;&lt;br/&gt;      &lt;span class=&quot;token keyword&quot; style=&quot;box-sizing: border-box ; color: rgb(204 , 153 , 205)&quot;&gt;return&lt;/span&gt; &lt;span class=&quot;token function&quot; style=&quot;box-sizing: border-box ; color: rgb(240 , 141 , 73)&quot;&gt;done&lt;/span&gt;&lt;span class=&quot;token punctuation&quot; style=&quot;box-sizing: border-box&quot;&gt;(&lt;/span&gt;&lt;span class=&quot;token keyword&quot; style=&quot;box-sizing: border-box ; color: rgb(204 , 153 , 205)&quot;&gt;null&lt;/span&gt;&lt;span class=&quot;token punctuation&quot; style=&quot;box-sizing: border-box&quot;&gt;,&lt;/span&gt; user&lt;span class=&quot;token punctuation&quot; style=&quot;box-sizing: border-box&quot;&gt;)&lt;/span&gt;&lt;span class=&quot;token punctuation&quot; style=&quot;box-sizing: border-box&quot;&gt;;&lt;/span&gt;&lt;br/&gt;    &lt;span class=&quot;token punctuation&quot; style=&quot;box-sizing: border-box&quot;&gt;}&lt;/span&gt;&lt;span class=&quot;token punctuation&quot; style=&quot;box-sizing: border-box&quot;&gt;)&lt;/span&gt;&lt;span class=&quot;token punctuation&quot; style=&quot;box-sizing: border-box&quot;&gt;;&lt;/span&gt;&lt;br/&gt;  &lt;span class=&quot;token punctuation&quot; style=&quot;box-sizing: border-box&quot;&gt;}&lt;/span&gt;&lt;span class=&quot;token punctuation&quot; style=&quot;box-sizing: border-box&quot;&gt;)&lt;/span&gt;&lt;br/&gt;&lt;span class=&quot;token punctuation&quot; style=&quot;box-sizing: border-box&quot;&gt;)&lt;/span&gt;&lt;span class=&quot;token punctuation&quot; style=&quot;box-sizing: border-box&quot;&gt;;&lt;/span&gt;&lt;/code&gt;&lt;/pre&gt;&lt;/pre&gt;" style="text;html=1;align=center;verticalAlign=middle;resizable=0;points=[];autosize=1;fontSize=25;" vertex="1" parent="1">
                    <mxGeometry x="660" y="-2600" width="760" height="490" as="geometry"/>
                </mxCell>
                <mxCell id="39" value="General" parent="0"/>
                <mxCell id="43" value="Middleware Setup" style="swimlane;fontStyle=1;align=center;verticalAlign=top;childLayout=stackLayout;horizontal=1;startSize=50;horizontalStack=0;resizeParent=1;resizeParentMax=0;resizeLast=0;collapsible=1;marginBottom=0;rounded=1;fontSize=25;arcSize=0;" vertex="1" parent="39">
                    <mxGeometry x="-570" y="-1995" width="820" height="290" as="geometry">
                        <mxRectangle x="110" y="-1320" width="210" height="70" as="alternateBounds"/>
                    </mxGeometry>
                </mxCell>
                <mxCell id="44" value="" style="group" vertex="1" connectable="0" parent="43">
                    <mxGeometry y="50" width="820" height="240" as="geometry"/>
                </mxCell>
                <mxCell id="45" value="&lt;div style=&quot;color: rgb(212 , 212 , 212) ; background-color: rgb(30 , 30 , 30) ; font-family: &amp;#34;consolas&amp;#34; , &amp;#34;courier new&amp;#34; , monospace ; font-weight: normal ; font-size: 14px ; line-height: 19px&quot;&gt;&lt;pre class=&quot;language-javascript line-numbers&quot; style=&quot;box-sizing: border-box ; font-family: &amp;#34;consolas&amp;#34; , &amp;#34;monaco&amp;#34; , &amp;#34;andale mono&amp;#34; , &amp;#34;ubuntu mono&amp;#34; , monospace ; font-size: 16px ; margin-top: 0.5em ; margin-bottom: 0.5em ; overflow: auto ; color: rgb(204 , 204 , 204) ; border-radius: 10px ; background: rgb(45 , 45 , 45) ; word-break: normal ; overflow-wrap: normal ; line-height: 1.5 ; padding: 1em 1em 1em 3.8em ; position: relative&quot;&gt;&lt;code class=&quot;language-javascript&quot; style=&quot;box-sizing: border-box ; font-family: &amp;#34;consolas&amp;#34; , &amp;#34;monaco&amp;#34; , &amp;#34;andale mono&amp;#34; , &amp;#34;ubuntu mono&amp;#34; , monospace ; font-size: 1em ; color: rgb(204 , 204 , 204) ; overflow-wrap: normal ; word-break: normal ; background: none ; word-spacing: normal ; line-height: 1.5 ; position: relative&quot;&gt;app&lt;span class=&quot;token punctuation&quot; style=&quot;box-sizing: border-box&quot;&gt;.&lt;/span&gt;&lt;span class=&quot;token function&quot; style=&quot;box-sizing: border-box ; color: rgb(240 , 141 , 73)&quot;&gt;use&lt;/span&gt;&lt;span class=&quot;token punctuation&quot; style=&quot;box-sizing: border-box&quot;&gt;(&lt;/span&gt;&lt;span class=&quot;token function&quot; style=&quot;box-sizing: border-box ; color: rgb(240 , 141 , 73)&quot;&gt;session&lt;/span&gt;&lt;span class=&quot;token punctuation&quot; style=&quot;box-sizing: border-box&quot;&gt;(&lt;/span&gt;&lt;span class=&quot;token punctuation&quot; style=&quot;box-sizing: border-box&quot;&gt;{&lt;/span&gt; secret&lt;span class=&quot;token operator&quot; style=&quot;box-sizing: border-box ; color: rgb(103 , 205 , 204)&quot;&gt;:&lt;/span&gt; &lt;span class=&quot;token string&quot; style=&quot;box-sizing: border-box ; color: rgb(126 , 198 , 153)&quot;&gt;&quot;cats&quot;&lt;/span&gt;&lt;span class=&quot;token punctuation&quot; style=&quot;box-sizing: border-box&quot;&gt;,&lt;/span&gt; resave&lt;span class=&quot;token operator&quot; style=&quot;box-sizing: border-box ; color: rgb(103 , 205 , 204)&quot;&gt;:&lt;/span&gt; &lt;span class=&quot;token boolean&quot; style=&quot;box-sizing: border-box ; color: rgb(240 , 141 , 73)&quot;&gt;false&lt;/span&gt;&lt;span class=&quot;token punctuation&quot; style=&quot;box-sizing: border-box&quot;&gt;,&lt;/span&gt; saveUninitialized&lt;span class=&quot;token operator&quot; style=&quot;box-sizing: border-box ; color: rgb(103 , 205 , 204)&quot;&gt;:&lt;/span&gt; &lt;span class=&quot;token boolean&quot; style=&quot;box-sizing: border-box ; color: rgb(240 , 141 , 73)&quot;&gt;true&lt;/span&gt; &lt;span class=&quot;token punctuation&quot; style=&quot;box-sizing: border-box&quot;&gt;}&lt;/span&gt;&lt;span class=&quot;token punctuation&quot; style=&quot;box-sizing: border-box&quot;&gt;)&lt;/span&gt;&lt;span class=&quot;token punctuation&quot; style=&quot;box-sizing: border-box&quot;&gt;)&lt;/span&gt;&lt;span class=&quot;token punctuation&quot; style=&quot;box-sizing: border-box&quot;&gt;;&lt;/span&gt;&lt;br/&gt;app&lt;span class=&quot;token punctuation&quot; style=&quot;box-sizing: border-box&quot;&gt;.&lt;/span&gt;&lt;span class=&quot;token function&quot; style=&quot;box-sizing: border-box ; color: rgb(240 , 141 , 73)&quot;&gt;use&lt;/span&gt;&lt;span class=&quot;token punctuation&quot; style=&quot;box-sizing: border-box&quot;&gt;(&lt;/span&gt;passport&lt;span class=&quot;token punctuation&quot; style=&quot;box-sizing: border-box&quot;&gt;.&lt;/span&gt;&lt;span class=&quot;token function&quot; style=&quot;box-sizing: border-box ; color: rgb(240 , 141 , 73)&quot;&gt;initialize&lt;/span&gt;&lt;span class=&quot;token punctuation&quot; style=&quot;box-sizing: border-box&quot;&gt;(&lt;/span&gt;&lt;span class=&quot;token punctuation&quot; style=&quot;box-sizing: border-box&quot;&gt;)&lt;/span&gt;&lt;span class=&quot;token punctuation&quot; style=&quot;box-sizing: border-box&quot;&gt;)&lt;/span&gt;&lt;span class=&quot;token punctuation&quot; style=&quot;box-sizing: border-box&quot;&gt;;&lt;/span&gt;&lt;br/&gt;app&lt;span class=&quot;token punctuation&quot; style=&quot;box-sizing: border-box&quot;&gt;.&lt;/span&gt;&lt;span class=&quot;token function&quot; style=&quot;box-sizing: border-box ; color: rgb(240 , 141 , 73)&quot;&gt;use&lt;/span&gt;&lt;span class=&quot;token punctuation&quot; style=&quot;box-sizing: border-box&quot;&gt;(&lt;/span&gt;passport&lt;span class=&quot;token punctuation&quot; style=&quot;box-sizing: border-box&quot;&gt;.&lt;/span&gt;&lt;span class=&quot;token function&quot; style=&quot;box-sizing: border-box ; color: rgb(240 , 141 , 73)&quot;&gt;session&lt;/span&gt;&lt;span class=&quot;token punctuation&quot; style=&quot;box-sizing: border-box&quot;&gt;(&lt;/span&gt;&lt;span class=&quot;token punctuation&quot; style=&quot;box-sizing: border-box&quot;&gt;)&lt;/span&gt;&lt;span class=&quot;token punctuation&quot; style=&quot;box-sizing: border-box&quot;&gt;)&lt;/span&gt;&lt;span class=&quot;token punctuation&quot; style=&quot;box-sizing: border-box&quot;&gt;;&lt;/span&gt;&lt;/code&gt;&lt;/pre&gt;&lt;/div&gt;" style="text;whiteSpace=wrap;html=1;rounded=1;arcSize=50;" vertex="1" parent="44">
                    <mxGeometry x="16.670000000000016" y="38" width="433.33" height="130" as="geometry"/>
                </mxCell>
                <mxCell id="46" value="Create New User And Hash Password" style="swimlane;fontStyle=1;align=center;verticalAlign=top;childLayout=stackLayout;horizontal=1;startSize=50;horizontalStack=0;resizeParent=1;resizeParentMax=0;resizeLast=0;collapsible=1;marginBottom=0;rounded=1;fontSize=25;arcSize=0;" vertex="1" parent="39">
                    <mxGeometry x="500" y="-1850" width="570" height="540" as="geometry">
                        <mxRectangle x="620" y="-1430" width="210" height="70" as="alternateBounds"/>
                    </mxGeometry>
                </mxCell>
                <mxCell id="47" value="&lt;pre class=&quot;language-javascript line-numbers&quot; style=&quot;box-sizing: border-box ; font-family: &amp;#34;consolas&amp;#34; , &amp;#34;monaco&amp;#34; , &amp;#34;andale mono&amp;#34; , &amp;#34;ubuntu mono&amp;#34; , monospace ; font-size: 16px ; margin-top: 0.5em ; margin-bottom: 0.5em ; overflow: auto ; color: rgb(204 , 204 , 204) ; border-radius: 10px ; background: rgb(45 , 45 , 45) ; text-align: left ; word-break: normal ; overflow-wrap: normal ; line-height: 1.5 ; padding: 1em 1em 1em 3.8em ; position: relative&quot;&gt;&lt;div style=&quot;color: rgb(212 , 212 , 212) ; background-color: rgb(30 , 30 , 30) ; font-family: &amp;#34;consolas&amp;#34; , &amp;#34;courier new&amp;#34; , monospace ; font-size: 14px ; line-height: 19px&quot;&gt;&lt;div&gt;&lt;span style=&quot;color: #4fc1ff&quot;&gt;app&lt;/span&gt;.&lt;span style=&quot;color: #dcdcaa&quot;&gt;post&lt;/span&gt;(&lt;span style=&quot;color: #ce9178&quot;&gt;&quot;/sign-up&quot;&lt;/span&gt;,&amp;nbsp;(&lt;span style=&quot;color: #9cdcfe&quot;&gt;req&lt;/span&gt;,&amp;nbsp;&lt;span style=&quot;color: #9cdcfe&quot;&gt;res&lt;/span&gt;,&amp;nbsp;&lt;span style=&quot;color: #dcdcaa&quot;&gt;next&lt;/span&gt;)&amp;nbsp;&lt;span style=&quot;color: #569cd6&quot;&gt;=&amp;gt;&lt;/span&gt;&amp;nbsp;{&lt;/div&gt;&lt;br&gt;&lt;div&gt;&lt;span style=&quot;color: #9cdcfe&quot;&gt;&amp;nbsp;&amp;nbsp;&amp;nbsp;&amp;nbsp;bcrypt&lt;/span&gt;.&lt;span style=&quot;color: #dcdcaa&quot;&gt;hash&lt;/span&gt;(&lt;span style=&quot;color: #9cdcfe&quot;&gt;req&lt;/span&gt;.&lt;span style=&quot;color: #9cdcfe&quot;&gt;body&lt;/span&gt;.&lt;span style=&quot;color: #9cdcfe&quot;&gt;password&lt;/span&gt;,&amp;nbsp;&lt;span style=&quot;color: #b5cea8&quot;&gt;10&lt;/span&gt;,&amp;nbsp;(&lt;span style=&quot;color: #9cdcfe&quot;&gt;err&lt;/span&gt;,&amp;nbsp;&lt;span style=&quot;color: #9cdcfe&quot;&gt;hashedPassword&lt;/span&gt;)&amp;nbsp;&lt;span style=&quot;color: #569cd6&quot;&gt;=&amp;gt;&lt;/span&gt;&amp;nbsp;{&lt;/div&gt;&lt;div&gt;&amp;nbsp;&amp;nbsp;&amp;nbsp;&amp;nbsp;&amp;nbsp;&amp;nbsp;&amp;nbsp;&amp;nbsp;&lt;span style=&quot;color: #6a9955&quot;&gt;//&amp;nbsp;if&amp;nbsp;err,&amp;nbsp;do&amp;nbsp;something&lt;/span&gt;&lt;/div&gt;&lt;div&gt;&amp;nbsp;&amp;nbsp;&amp;nbsp;&amp;nbsp;&amp;nbsp;&amp;nbsp;&amp;nbsp;&amp;nbsp;&lt;span style=&quot;color: #c586c0&quot;&gt;if&lt;/span&gt;&amp;nbsp;(&lt;span style=&quot;color: #9cdcfe&quot;&gt;err&lt;/span&gt;)&amp;nbsp;{&lt;/div&gt;&lt;div&gt;&amp;nbsp;&amp;nbsp;&amp;nbsp;&amp;nbsp;&amp;nbsp;&amp;nbsp;&amp;nbsp;&amp;nbsp;&amp;nbsp;&amp;nbsp;&amp;nbsp;&amp;nbsp;&lt;span style=&quot;color: #c586c0&quot;&gt;return&lt;/span&gt;&amp;nbsp;&lt;span style=&quot;color: #dcdcaa&quot;&gt;next&lt;/span&gt;(&lt;span style=&quot;color: #9cdcfe&quot;&gt;err&lt;/span&gt;);&lt;/div&gt;&lt;div&gt;&amp;nbsp;&amp;nbsp;&amp;nbsp;&amp;nbsp;&amp;nbsp;&amp;nbsp;&amp;nbsp;&amp;nbsp;}&lt;/div&gt;&lt;div&gt;&amp;nbsp;&amp;nbsp;&amp;nbsp;&amp;nbsp;&amp;nbsp;&amp;nbsp;&amp;nbsp;&amp;nbsp;&lt;span style=&quot;color: #6a9955&quot;&gt;//&amp;nbsp;otherwise,&amp;nbsp;store&amp;nbsp;hashedPassword&amp;nbsp;in&amp;nbsp;DB&lt;/span&gt;&lt;/div&gt;&lt;div&gt;&amp;nbsp;&amp;nbsp;&amp;nbsp;&amp;nbsp;&amp;nbsp;&amp;nbsp;&amp;nbsp;&amp;nbsp;&lt;span style=&quot;color: #6a9955&quot;&gt;//&amp;nbsp;eslint-disable-next-line&amp;nbsp;no-unused-vars&lt;/span&gt;&lt;/div&gt;&lt;div&gt;&amp;nbsp;&amp;nbsp;&amp;nbsp;&amp;nbsp;&amp;nbsp;&amp;nbsp;&amp;nbsp;&amp;nbsp;&lt;span style=&quot;color: #569cd6&quot;&gt;const&lt;/span&gt;&amp;nbsp;&lt;span style=&quot;color: #4fc1ff&quot;&gt;user&lt;/span&gt;&amp;nbsp;=&amp;nbsp;&lt;span style=&quot;color: #569cd6&quot;&gt;new&lt;/span&gt;&amp;nbsp;&lt;span style=&quot;color: #4ec9b0&quot;&gt;User&lt;/span&gt;({&lt;/div&gt;&lt;div&gt;&amp;nbsp;&amp;nbsp;&amp;nbsp;&amp;nbsp;&amp;nbsp;&amp;nbsp;&amp;nbsp;&amp;nbsp;&amp;nbsp;&amp;nbsp;&amp;nbsp;&amp;nbsp;&lt;span style=&quot;color: #9cdcfe&quot;&gt;username&lt;/span&gt;:&lt;span style=&quot;color: #9cdcfe&quot;&gt;&amp;nbsp;&lt;/span&gt;&lt;span style=&quot;color: #9cdcfe&quot;&gt;req&lt;/span&gt;.&lt;span style=&quot;color: #9cdcfe&quot;&gt;body&lt;/span&gt;.&lt;span style=&quot;color: #9cdcfe&quot;&gt;username&lt;/span&gt;,&lt;/div&gt;&lt;div&gt;&amp;nbsp;&amp;nbsp;&amp;nbsp;&amp;nbsp;&amp;nbsp;&amp;nbsp;&amp;nbsp;&amp;nbsp;&amp;nbsp;&amp;nbsp;&amp;nbsp;&amp;nbsp;&lt;span style=&quot;color: #9cdcfe&quot;&gt;password&lt;/span&gt;:&amp;nbsp;&lt;span style=&quot;color: #9cdcfe&quot;&gt;hashedPassword&lt;/span&gt;&lt;/div&gt;&lt;div&gt;&amp;nbsp;&amp;nbsp;&amp;nbsp;&amp;nbsp;&amp;nbsp;&amp;nbsp;&amp;nbsp;&amp;nbsp;}).&lt;span style=&quot;color: #dcdcaa&quot;&gt;save&lt;/span&gt;(&lt;span style=&quot;color: #9cdcfe&quot;&gt;err&lt;/span&gt;&amp;nbsp;&lt;span style=&quot;color: #569cd6&quot;&gt;=&amp;gt;&lt;/span&gt;&amp;nbsp;{&lt;/div&gt;&lt;div&gt;&amp;nbsp;&amp;nbsp;&amp;nbsp;&amp;nbsp;&amp;nbsp;&amp;nbsp;&amp;nbsp;&amp;nbsp;&amp;nbsp;&amp;nbsp;&amp;nbsp;&amp;nbsp;&lt;span style=&quot;color: #c586c0&quot;&gt;if&lt;/span&gt;&amp;nbsp;(&lt;span style=&quot;color: #9cdcfe&quot;&gt;err&lt;/span&gt;)&amp;nbsp;{&lt;/div&gt;&lt;div&gt;&amp;nbsp;&amp;nbsp;&amp;nbsp;&amp;nbsp;&amp;nbsp;&amp;nbsp;&amp;nbsp;&amp;nbsp;&amp;nbsp;&amp;nbsp;&amp;nbsp;&amp;nbsp;&amp;nbsp;&amp;nbsp;&amp;nbsp;&amp;nbsp;&lt;span style=&quot;color: #c586c0&quot;&gt;return&lt;/span&gt;&amp;nbsp;&lt;span style=&quot;color: #dcdcaa&quot;&gt;next&lt;/span&gt;(&lt;span style=&quot;color: #9cdcfe&quot;&gt;err&lt;/span&gt;);&lt;/div&gt;&lt;div&gt;&amp;nbsp;&amp;nbsp;&amp;nbsp;&amp;nbsp;&amp;nbsp;&amp;nbsp;&amp;nbsp;&amp;nbsp;&amp;nbsp;&amp;nbsp;&amp;nbsp;&amp;nbsp;}&lt;/div&gt;&lt;div&gt;&amp;nbsp;&amp;nbsp;&amp;nbsp;&amp;nbsp;&amp;nbsp;&amp;nbsp;&amp;nbsp;&amp;nbsp;&amp;nbsp;&amp;nbsp;&amp;nbsp;&amp;nbsp;&lt;span style=&quot;color: #c586c0&quot;&gt;return&lt;/span&gt;&lt;span style=&quot;color: #9cdcfe&quot;&gt;&amp;nbsp;&lt;/span&gt;&lt;span style=&quot;color: #9cdcfe&quot;&gt;res&lt;/span&gt;.&lt;span style=&quot;color: #dcdcaa&quot;&gt;redirect&lt;/span&gt;(&lt;span style=&quot;color: #ce9178&quot;&gt;&quot;/&quot;&lt;/span&gt;);&lt;/div&gt;&lt;div&gt;&amp;nbsp;&amp;nbsp;&amp;nbsp;&amp;nbsp;&amp;nbsp;&amp;nbsp;&amp;nbsp;&amp;nbsp;});&lt;/div&gt;&lt;div&gt;&amp;nbsp;&amp;nbsp;&amp;nbsp;&amp;nbsp;});&lt;/div&gt;&lt;br&gt;&lt;br&gt;&lt;br&gt;&lt;div&gt;});&lt;/div&gt;&lt;/div&gt;&lt;/pre&gt;" style="text;html=1;align=center;verticalAlign=middle;resizable=0;points=[];autosize=1;fontSize=25;" vertex="1" parent="46">
                    <mxGeometry y="50" width="570" height="490" as="geometry"/>
                </mxCell>
                <mxCell id="49" value="Serialization and deSerialization" style="swimlane;fontStyle=1;align=center;verticalAlign=top;childLayout=stackLayout;horizontal=1;startSize=50;horizontalStack=0;resizeParent=1;resizeParentMax=0;resizeLast=0;collapsible=1;marginBottom=0;rounded=1;fontSize=25;arcSize=0;" vertex="1" collapsed="1" parent="39">
                    <mxGeometry x="-520" y="-1600" width="420" height="70" as="geometry">
                        <mxRectangle x="550" y="-1120" width="590" height="370" as="alternateBounds"/>
                    </mxGeometry>
                </mxCell>
                <mxCell id="50" value="&lt;pre class=&quot;language-javascript line-numbers&quot; style=&quot;box-sizing: border-box ; font-family: &amp;#34;consolas&amp;#34; , &amp;#34;monaco&amp;#34; , &amp;#34;andale mono&amp;#34; , &amp;#34;ubuntu mono&amp;#34; , monospace ; font-size: 16px ; margin-top: 0.5em ; margin-bottom: 0.5em ; overflow: auto ; color: rgb(204 , 204 , 204) ; border-radius: 10px ; background: rgb(45 , 45 , 45) ; text-align: left ; word-break: normal ; overflow-wrap: normal ; line-height: 1.5 ; padding: 1em 1em 1em 3.8em ; position: relative&quot;&gt;&lt;pre class=&quot;language-javascript line-numbers&quot; style=&quot;box-sizing: border-box ; font-family: &amp;#34;consolas&amp;#34; , &amp;#34;monaco&amp;#34; , &amp;#34;andale mono&amp;#34; , &amp;#34;ubuntu mono&amp;#34; , monospace ; margin-top: 0.5em ; margin-bottom: 0.5em ; overflow: auto ; border-radius: 10px ; word-break: normal ; overflow-wrap: normal ; line-height: 1.5 ; padding: 1em 1em 1em 3.8em ; position: relative&quot;&gt;&lt;code class=&quot;language-javascript&quot; style=&quot;box-sizing: border-box ; font-family: &amp;#34;consolas&amp;#34; , &amp;#34;monaco&amp;#34; , &amp;#34;andale mono&amp;#34; , &amp;#34;ubuntu mono&amp;#34; , monospace ; font-size: 1em ; color: rgb(204 , 204 , 204) ; overflow-wrap: normal ; word-break: normal ; background: none ; word-spacing: normal ; line-height: 1.5 ; position: relative&quot;&gt;passport&lt;span class=&quot;token punctuation&quot; style=&quot;box-sizing: border-box&quot;&gt;.&lt;/span&gt;&lt;span class=&quot;token function&quot; style=&quot;box-sizing: border-box ; color: rgb(240 , 141 , 73)&quot;&gt;serializeUser&lt;/span&gt;&lt;span class=&quot;token punctuation&quot; style=&quot;box-sizing: border-box&quot;&gt;(&lt;/span&gt;&lt;span class=&quot;token keyword&quot; style=&quot;box-sizing: border-box ; color: rgb(204 , 153 , 205)&quot;&gt;function&lt;/span&gt;&lt;span class=&quot;token punctuation&quot; style=&quot;box-sizing: border-box&quot;&gt;(&lt;/span&gt;&lt;span class=&quot;token parameter&quot; style=&quot;box-sizing: border-box&quot;&gt;user&lt;span class=&quot;token punctuation&quot; style=&quot;box-sizing: border-box&quot;&gt;,&lt;/span&gt; done&lt;/span&gt;&lt;span class=&quot;token punctuation&quot; style=&quot;box-sizing: border-box&quot;&gt;)&lt;/span&gt; &lt;span class=&quot;token punctuation&quot; style=&quot;box-sizing: border-box&quot;&gt;{&lt;/span&gt;&lt;br/&gt;  &lt;span class=&quot;token function&quot; style=&quot;box-sizing: border-box ; color: rgb(240 , 141 , 73)&quot;&gt;done&lt;/span&gt;&lt;span class=&quot;token punctuation&quot; style=&quot;box-sizing: border-box&quot;&gt;(&lt;/span&gt;&lt;span class=&quot;token keyword&quot; style=&quot;box-sizing: border-box ; color: rgb(204 , 153 , 205)&quot;&gt;null&lt;/span&gt;&lt;span class=&quot;token punctuation&quot; style=&quot;box-sizing: border-box&quot;&gt;,&lt;/span&gt; user&lt;span class=&quot;token punctuation&quot; style=&quot;box-sizing: border-box&quot;&gt;.&lt;/span&gt;id&lt;span class=&quot;token punctuation&quot; style=&quot;box-sizing: border-box&quot;&gt;)&lt;/span&gt;&lt;span class=&quot;token punctuation&quot; style=&quot;box-sizing: border-box&quot;&gt;;&lt;/span&gt;&lt;br/&gt;&lt;span class=&quot;token punctuation&quot; style=&quot;box-sizing: border-box&quot;&gt;}&lt;/span&gt;&lt;span class=&quot;token punctuation&quot; style=&quot;box-sizing: border-box&quot;&gt;)&lt;/span&gt;&lt;span class=&quot;token punctuation&quot; style=&quot;box-sizing: border-box&quot;&gt;;&lt;/span&gt;&lt;br/&gt;&lt;br/&gt;passport&lt;span class=&quot;token punctuation&quot; style=&quot;box-sizing: border-box&quot;&gt;.&lt;/span&gt;&lt;span class=&quot;token function&quot; style=&quot;box-sizing: border-box ; color: rgb(240 , 141 , 73)&quot;&gt;deserializeUser&lt;/span&gt;&lt;span class=&quot;token punctuation&quot; style=&quot;box-sizing: border-box&quot;&gt;(&lt;/span&gt;&lt;span class=&quot;token keyword&quot; style=&quot;box-sizing: border-box ; color: rgb(204 , 153 , 205)&quot;&gt;function&lt;/span&gt;&lt;span class=&quot;token punctuation&quot; style=&quot;box-sizing: border-box&quot;&gt;(&lt;/span&gt;&lt;span class=&quot;token parameter&quot; style=&quot;box-sizing: border-box&quot;&gt;id&lt;span class=&quot;token punctuation&quot; style=&quot;box-sizing: border-box&quot;&gt;,&lt;/span&gt; done&lt;/span&gt;&lt;span class=&quot;token punctuation&quot; style=&quot;box-sizing: border-box&quot;&gt;)&lt;/span&gt; &lt;span class=&quot;token punctuation&quot; style=&quot;box-sizing: border-box&quot;&gt;{&lt;/span&gt;&lt;br/&gt;  User&lt;span class=&quot;token punctuation&quot; style=&quot;box-sizing: border-box&quot;&gt;.&lt;/span&gt;&lt;span class=&quot;token function&quot; style=&quot;box-sizing: border-box ; color: rgb(240 , 141 , 73)&quot;&gt;findById&lt;/span&gt;&lt;span class=&quot;token punctuation&quot; style=&quot;box-sizing: border-box&quot;&gt;(&lt;/span&gt;id&lt;span class=&quot;token punctuation&quot; style=&quot;box-sizing: border-box&quot;&gt;,&lt;/span&gt; &lt;span class=&quot;token keyword&quot; style=&quot;box-sizing: border-box ; color: rgb(204 , 153 , 205)&quot;&gt;function&lt;/span&gt;&lt;span class=&quot;token punctuation&quot; style=&quot;box-sizing: border-box&quot;&gt;(&lt;/span&gt;&lt;span class=&quot;token parameter&quot; style=&quot;box-sizing: border-box&quot;&gt;err&lt;span class=&quot;token punctuation&quot; style=&quot;box-sizing: border-box&quot;&gt;,&lt;/span&gt; user&lt;/span&gt;&lt;span class=&quot;token punctuation&quot; style=&quot;box-sizing: border-box&quot;&gt;)&lt;/span&gt; &lt;span class=&quot;token punctuation&quot; style=&quot;box-sizing: border-box&quot;&gt;{&lt;/span&gt;&lt;br/&gt;    &lt;span class=&quot;token function&quot; style=&quot;box-sizing: border-box ; color: rgb(240 , 141 , 73)&quot;&gt;done&lt;/span&gt;&lt;span class=&quot;token punctuation&quot; style=&quot;box-sizing: border-box&quot;&gt;(&lt;/span&gt;err&lt;span class=&quot;token punctuation&quot; style=&quot;box-sizing: border-box&quot;&gt;,&lt;/span&gt; user&lt;span class=&quot;token punctuation&quot; style=&quot;box-sizing: border-box&quot;&gt;)&lt;/span&gt;&lt;span class=&quot;token punctuation&quot; style=&quot;box-sizing: border-box&quot;&gt;;&lt;/span&gt;&lt;br/&gt;  &lt;span class=&quot;token punctuation&quot; style=&quot;box-sizing: border-box&quot;&gt;}&lt;/span&gt;&lt;span class=&quot;token punctuation&quot; style=&quot;box-sizing: border-box&quot;&gt;)&lt;/span&gt;&lt;span class=&quot;token punctuation&quot; style=&quot;box-sizing: border-box&quot;&gt;;&lt;/span&gt;&lt;br/&gt;&lt;span class=&quot;token punctuation&quot; style=&quot;box-sizing: border-box&quot;&gt;}&lt;/span&gt;&lt;span class=&quot;token punctuation&quot; style=&quot;box-sizing: border-box&quot;&gt;)&lt;/span&gt;&lt;span class=&quot;token punctuation&quot; style=&quot;box-sizing: border-box&quot;&gt;;&lt;/span&gt;&lt;/code&gt;&lt;/pre&gt;&lt;/pre&gt;" style="text;html=1;align=center;verticalAlign=middle;resizable=0;points=[];autosize=1;fontSize=25;" vertex="1" parent="49">
                    <mxGeometry y="50" width="420" height="320" as="geometry"/>
                </mxCell>
                <mxCell id="55" value="" style="group" vertex="1" connectable="0" parent="39">
                    <mxGeometry x="-320" y="-2570" width="1510" height="575" as="geometry"/>
                </mxCell>
                <mxCell id="40" value="" style="group" vertex="1" connectable="0" parent="55">
                    <mxGeometry y="100" width="500" height="270" as="geometry"/>
                </mxCell>
                <mxCell id="41" value="&lt;pre class=&quot;language-javascript line-numbers&quot; style=&quot;box-sizing: border-box ; font-family: &amp;#34;consolas&amp;#34; , &amp;#34;monaco&amp;#34; , &amp;#34;andale mono&amp;#34; , &amp;#34;ubuntu mono&amp;#34; , monospace ; font-size: 16px ; margin-top: 0.5em ; margin-bottom: 0.5em ; overflow: auto ; color: rgb(204 , 204 , 204) ; border-radius: 10px ; text-align: left ; word-break: normal ; overflow-wrap: normal ; line-height: 1.5 ; padding: 1em 1em 1em 3.8em ; position: relative&quot;&gt;&lt;code class=&quot;language-javascript&quot; style=&quot;box-sizing: border-box ; font-family: &amp;#34;consolas&amp;#34; , &amp;#34;monaco&amp;#34; , &amp;#34;andale mono&amp;#34; , &amp;#34;ubuntu mono&amp;#34; , monospace ; font-size: 1em ; color: rgb(204 , 204 , 204) ; overflow-wrap: normal ; word-break: normal ; background-image: none ; word-spacing: normal ; line-height: 1.5 ; position: relative&quot;&gt;app&lt;span class=&quot;token punctuation&quot; style=&quot;box-sizing: border-box&quot;&gt;.&lt;/span&gt;&lt;span class=&quot;token function&quot; style=&quot;box-sizing: border-box ; color: rgb(240 , 141 , 73)&quot;&gt;post&lt;/span&gt;&lt;span class=&quot;token punctuation&quot; style=&quot;box-sizing: border-box&quot;&gt;(&lt;/span&gt;&lt;br&gt;  &lt;span class=&quot;token string&quot; style=&quot;box-sizing: border-box ; color: rgb(126 , 198 , 153)&quot;&gt;&quot;/log-in&quot;&lt;/span&gt;&lt;span class=&quot;token punctuation&quot; style=&quot;box-sizing: border-box&quot;&gt;,&lt;/span&gt;&lt;br&gt;  passport&lt;span class=&quot;token punctuation&quot; style=&quot;box-sizing: border-box&quot;&gt;.&lt;/span&gt;&lt;span class=&quot;token function&quot; style=&quot;box-sizing: border-box ; color: rgb(240 , 141 , 73)&quot;&gt;authenticate&lt;/span&gt;&lt;span class=&quot;token punctuation&quot; style=&quot;box-sizing: border-box&quot;&gt;(&lt;/span&gt;&lt;span class=&quot;token string&quot; style=&quot;box-sizing: border-box ; color: rgb(126 , 198 , 153)&quot;&gt;&quot;&lt;u&gt;local&lt;/u&gt;&quot;&lt;/span&gt;&lt;span class=&quot;token punctuation&quot; style=&quot;box-sizing: border-box&quot;&gt;,&lt;/span&gt; &lt;span class=&quot;token punctuation&quot; style=&quot;box-sizing: border-box&quot;&gt;{&lt;/span&gt;&lt;br&gt;    successRedirect&lt;span class=&quot;token operator&quot; style=&quot;box-sizing: border-box ; color: rgb(103 , 205 , 204)&quot;&gt;:&lt;/span&gt; &lt;span class=&quot;token string&quot; style=&quot;box-sizing: border-box ; color: rgb(126 , 198 , 153)&quot;&gt;&quot;/&quot;&lt;/span&gt;&lt;span class=&quot;token punctuation&quot; style=&quot;box-sizing: border-box&quot;&gt;,&lt;/span&gt;&lt;br&gt;    failureRedirect&lt;span class=&quot;token operator&quot; style=&quot;box-sizing: border-box ; color: rgb(103 , 205 , 204)&quot;&gt;:&lt;/span&gt; &lt;span class=&quot;token string&quot; style=&quot;box-sizing: border-box ; color: rgb(126 , 198 , 153)&quot;&gt;&quot;/&quot;&lt;/span&gt;&lt;br&gt;  &lt;span class=&quot;token punctuation&quot; style=&quot;box-sizing: border-box&quot;&gt;}&lt;/span&gt;&lt;span class=&quot;token punctuation&quot; style=&quot;box-sizing: border-box&quot;&gt;)&lt;/span&gt;&lt;br&gt;&lt;span class=&quot;token punctuation&quot; style=&quot;box-sizing: border-box&quot;&gt;)&lt;/span&gt;&lt;span class=&quot;token punctuation&quot; style=&quot;box-sizing: border-box&quot;&gt;;&lt;/span&gt;&lt;/code&gt;&lt;/pre&gt;" style="text;html=1;align=center;verticalAlign=middle;resizable=0;points=[];autosize=1;fontSize=25;labelBackgroundColor=#000000;" vertex="1" parent="40">
                    <mxGeometry x="55" y="50" width="390" height="220" as="geometry"/>
                </mxCell>
                <mxCell id="42" value="Login Route" style="swimlane;fontStyle=1;align=center;verticalAlign=top;childLayout=stackLayout;horizontal=1;startSize=50;horizontalStack=0;resizeParent=1;resizeParentMax=0;resizeLast=0;collapsible=1;marginBottom=0;rounded=1;fontSize=25;arcSize=0;" vertex="1" parent="40">
                    <mxGeometry width="500" height="270" as="geometry">
                        <mxRectangle x="1220" y="-1300" width="210" height="70" as="alternateBounds"/>
                    </mxGeometry>
                </mxCell>
                <mxCell id="48" value="Authentication: Setting up LocalStrategy " style="swimlane;fontStyle=1;align=center;verticalAlign=top;childLayout=stackLayout;horizontal=1;startSize=50;horizontalStack=0;resizeParent=1;resizeParentMax=0;resizeLast=0;collapsible=1;marginBottom=0;rounded=1;fontSize=25;arcSize=0;" vertex="1" parent="55">
                    <mxGeometry x="740" width="770" height="610" as="geometry">
                        <mxRectangle x="150" y="-1220" width="520" height="70" as="alternateBounds"/>
                    </mxGeometry>
                </mxCell>
                <mxCell id="51" value="&lt;pre class=&quot;language-javascript line-numbers&quot; style=&quot;box-sizing: border-box ; font-family: &amp;#34;consolas&amp;#34; , &amp;#34;monaco&amp;#34; , &amp;#34;andale mono&amp;#34; , &amp;#34;ubuntu mono&amp;#34; , monospace ; font-size: 16px ; margin-top: 0.5em ; margin-bottom: 0.5em ; overflow: auto ; color: rgb(204 , 204 , 204) ; border-radius: 10px ; background: rgb(45 , 45 , 45) ; text-align: left ; word-break: normal ; overflow-wrap: normal ; line-height: 1.5 ; padding: 1em 1em 1em 3.8em ; position: relative&quot;&gt;&lt;pre class=&quot;language-javascript line-numbers&quot; style=&quot;box-sizing: border-box ; font-family: &amp;#34;consolas&amp;#34; , &amp;#34;monaco&amp;#34; , &amp;#34;andale mono&amp;#34; , &amp;#34;ubuntu mono&amp;#34; , monospace ; margin-top: 0.5em ; margin-bottom: 0.5em ; overflow: auto ; border-radius: 10px ; word-break: normal ; overflow-wrap: normal ; line-height: 1.5 ; padding: 1em 1em 1em 3.8em ; position: relative&quot;&gt;&lt;div style=&quot;color: rgb(212 , 212 , 212) ; background-color: rgb(30 , 30 , 30) ; font-family: &amp;#34;consolas&amp;#34; , &amp;#34;courier new&amp;#34; , monospace ; font-size: 14px ; line-height: 19px&quot;&gt;&lt;div&gt;&lt;span style=&quot;color: #6a9955&quot;&gt;//Function&amp;nbsp;one&amp;nbsp;:&amp;nbsp;setting&amp;nbsp;up&amp;nbsp;the&amp;nbsp;LocalStrategy&lt;/span&gt;&lt;/div&gt;&lt;div&gt;&lt;span style=&quot;color: #4fc1ff&quot;&gt;passport&lt;/span&gt;.&lt;span style=&quot;color: #dcdcaa&quot;&gt;use&lt;/span&gt;(&lt;/div&gt;&lt;div&gt;&amp;nbsp;&amp;nbsp;&amp;nbsp;&amp;nbsp;&lt;span style=&quot;color: #569cd6&quot;&gt;new&lt;/span&gt;&amp;nbsp;&lt;span style=&quot;color: #4ec9b0&quot;&gt;LocalStrategy&lt;/span&gt;((&lt;span style=&quot;color: #9cdcfe&quot;&gt;username&lt;/span&gt;,&amp;nbsp;&lt;span style=&quot;color: #9cdcfe&quot;&gt;password&lt;/span&gt;,&amp;nbsp;&lt;span style=&quot;color: #dcdcaa&quot;&gt;done&lt;/span&gt;)&amp;nbsp;&lt;span style=&quot;color: #569cd6&quot;&gt;=&amp;gt;&lt;/span&gt;&amp;nbsp;{&lt;/div&gt;&lt;div&gt;&amp;nbsp;&amp;nbsp;&amp;nbsp;&amp;nbsp;&amp;nbsp;&amp;nbsp;&amp;nbsp;&amp;nbsp;&lt;span style=&quot;color: #4ec9b0&quot;&gt;User&lt;/span&gt;.&lt;span style=&quot;color: #dcdcaa&quot;&gt;findOne&lt;/span&gt;({&amp;nbsp;&lt;span style=&quot;color: #9cdcfe&quot;&gt;username&lt;/span&gt;:&amp;nbsp;&lt;span style=&quot;color: #9cdcfe&quot;&gt;username&lt;/span&gt;&amp;nbsp;},&amp;nbsp;(&lt;span style=&quot;color: #9cdcfe&quot;&gt;err&lt;/span&gt;,&amp;nbsp;&lt;span style=&quot;color: #9cdcfe&quot;&gt;user&lt;/span&gt;)&amp;nbsp;&lt;span style=&quot;color: #569cd6&quot;&gt;=&amp;gt;&lt;/span&gt;&amp;nbsp;{&lt;/div&gt;&lt;div&gt;&amp;nbsp;&amp;nbsp;&amp;nbsp;&amp;nbsp;&amp;nbsp;&amp;nbsp;&amp;nbsp;&amp;nbsp;&amp;nbsp;&amp;nbsp;&amp;nbsp;&amp;nbsp;&lt;span style=&quot;color: #c586c0&quot;&gt;if&lt;/span&gt;&amp;nbsp;(&lt;span style=&quot;color: #9cdcfe&quot;&gt;err&lt;/span&gt;)&amp;nbsp;{&lt;/div&gt;&lt;div&gt;&amp;nbsp;&amp;nbsp;&amp;nbsp;&amp;nbsp;&amp;nbsp;&amp;nbsp;&amp;nbsp;&amp;nbsp;&amp;nbsp;&amp;nbsp;&amp;nbsp;&amp;nbsp;&amp;nbsp;&amp;nbsp;&amp;nbsp;&amp;nbsp;&lt;span style=&quot;color: #c586c0&quot;&gt;return&lt;/span&gt;&amp;nbsp;&lt;span style=&quot;color: #dcdcaa&quot;&gt;done&lt;/span&gt;(&lt;span style=&quot;color: #9cdcfe&quot;&gt;err&lt;/span&gt;);&lt;/div&gt;&lt;div&gt;&amp;nbsp;&amp;nbsp;&amp;nbsp;&amp;nbsp;&amp;nbsp;&amp;nbsp;&amp;nbsp;&amp;nbsp;&amp;nbsp;&amp;nbsp;&amp;nbsp;&amp;nbsp;}&lt;/div&gt;&lt;div&gt;&amp;nbsp;&amp;nbsp;&amp;nbsp;&amp;nbsp;&amp;nbsp;&amp;nbsp;&amp;nbsp;&amp;nbsp;&amp;nbsp;&amp;nbsp;&amp;nbsp;&amp;nbsp;&lt;span style=&quot;color: #c586c0&quot;&gt;if&lt;/span&gt;&amp;nbsp;(!&lt;span style=&quot;color: #9cdcfe&quot;&gt;user&lt;/span&gt;)&amp;nbsp;{&lt;/div&gt;&lt;div&gt;&amp;nbsp;&amp;nbsp;&amp;nbsp;&amp;nbsp;&amp;nbsp;&amp;nbsp;&amp;nbsp;&amp;nbsp;&amp;nbsp;&amp;nbsp;&amp;nbsp;&amp;nbsp;&amp;nbsp;&amp;nbsp;&amp;nbsp;&amp;nbsp;&lt;span style=&quot;color: #c586c0&quot;&gt;return&lt;/span&gt;&amp;nbsp;&lt;span style=&quot;color: #dcdcaa&quot;&gt;done&lt;/span&gt;(&lt;span style=&quot;color: #569cd6&quot;&gt;null&lt;/span&gt;,&amp;nbsp;&lt;span style=&quot;color: #569cd6&quot;&gt;false&lt;/span&gt;,&amp;nbsp;{&amp;nbsp;&lt;span style=&quot;color: #9cdcfe&quot;&gt;message&lt;/span&gt;:&amp;nbsp;&lt;span style=&quot;color: #ce9178&quot;&gt;&quot;Incorrect&amp;nbsp;username&quot;&lt;/span&gt;&amp;nbsp;});&lt;/div&gt;&lt;div&gt;&amp;nbsp;&amp;nbsp;&amp;nbsp;&amp;nbsp;&amp;nbsp;&amp;nbsp;&amp;nbsp;&amp;nbsp;&amp;nbsp;&amp;nbsp;&amp;nbsp;&amp;nbsp;}&lt;/div&gt;&lt;div&gt;&lt;span style=&quot;color: #9cdcfe&quot;&gt;&amp;nbsp;&amp;nbsp;&amp;nbsp;&amp;nbsp;&amp;nbsp;&amp;nbsp;&amp;nbsp;&amp;nbsp;&amp;nbsp;&amp;nbsp;&amp;nbsp;&amp;nbsp;bcrypt&lt;/span&gt;.&lt;span style=&quot;color: #dcdcaa&quot;&gt;compare&lt;/span&gt;(&lt;span style=&quot;color: #9cdcfe&quot;&gt;password&lt;/span&gt;,&lt;span style=&quot;color: #9cdcfe&quot;&gt;&amp;nbsp;&lt;/span&gt;&lt;span style=&quot;color: #9cdcfe&quot;&gt;user&lt;/span&gt;.&lt;span style=&quot;color: #9cdcfe&quot;&gt;password&lt;/span&gt;,&amp;nbsp;(&lt;span style=&quot;color: #9cdcfe&quot;&gt;err&lt;/span&gt;,&amp;nbsp;&lt;span style=&quot;color: #9cdcfe&quot;&gt;res&lt;/span&gt;)&amp;nbsp;&lt;span style=&quot;color: #569cd6&quot;&gt;=&amp;gt;&lt;/span&gt;&amp;nbsp;{&lt;/div&gt;&lt;div&gt;&amp;nbsp;&amp;nbsp;&amp;nbsp;&amp;nbsp;&amp;nbsp;&amp;nbsp;&amp;nbsp;&amp;nbsp;&amp;nbsp;&amp;nbsp;&amp;nbsp;&amp;nbsp;&amp;nbsp;&amp;nbsp;&amp;nbsp;&amp;nbsp;&lt;span style=&quot;color: #c586c0&quot;&gt;if&lt;/span&gt;&amp;nbsp;(&lt;span style=&quot;color: #9cdcfe&quot;&gt;res&lt;/span&gt;)&amp;nbsp;{&lt;/div&gt;&lt;div&gt;&amp;nbsp;&amp;nbsp;&amp;nbsp;&amp;nbsp;&amp;nbsp;&amp;nbsp;&amp;nbsp;&amp;nbsp;&amp;nbsp;&amp;nbsp;&amp;nbsp;&amp;nbsp;&amp;nbsp;&amp;nbsp;&amp;nbsp;&amp;nbsp;&amp;nbsp;&amp;nbsp;&amp;nbsp;&amp;nbsp;&lt;span style=&quot;color: #6a9955&quot;&gt;//&amp;nbsp;passwords&amp;nbsp;match!&amp;nbsp;log&amp;nbsp;user&amp;nbsp;in&lt;/span&gt;&lt;/div&gt;&lt;div&gt;&amp;nbsp;&amp;nbsp;&amp;nbsp;&amp;nbsp;&amp;nbsp;&amp;nbsp;&amp;nbsp;&amp;nbsp;&amp;nbsp;&amp;nbsp;&amp;nbsp;&amp;nbsp;&amp;nbsp;&amp;nbsp;&amp;nbsp;&amp;nbsp;&amp;nbsp;&amp;nbsp;&amp;nbsp;&amp;nbsp;&lt;span style=&quot;color: #c586c0&quot;&gt;return&lt;/span&gt;&amp;nbsp;&lt;span style=&quot;color: #dcdcaa&quot;&gt;done&lt;/span&gt;(&lt;span style=&quot;color: #569cd6&quot;&gt;null&lt;/span&gt;,&amp;nbsp;&lt;span style=&quot;color: #9cdcfe&quot;&gt;user&lt;/span&gt;)&lt;/div&gt;&lt;div&gt;&amp;nbsp;&amp;nbsp;&amp;nbsp;&amp;nbsp;&amp;nbsp;&amp;nbsp;&amp;nbsp;&amp;nbsp;&amp;nbsp;&amp;nbsp;&amp;nbsp;&amp;nbsp;&amp;nbsp;&amp;nbsp;&amp;nbsp;&amp;nbsp;}&amp;nbsp;&lt;span style=&quot;color: #c586c0&quot;&gt;else&lt;/span&gt;&amp;nbsp;{&lt;/div&gt;&lt;div&gt;&amp;nbsp;&amp;nbsp;&amp;nbsp;&amp;nbsp;&amp;nbsp;&amp;nbsp;&amp;nbsp;&amp;nbsp;&amp;nbsp;&amp;nbsp;&amp;nbsp;&amp;nbsp;&amp;nbsp;&amp;nbsp;&amp;nbsp;&amp;nbsp;&amp;nbsp;&amp;nbsp;&amp;nbsp;&amp;nbsp;&lt;span style=&quot;color: #6a9955&quot;&gt;//&amp;nbsp;passwords&amp;nbsp;do&amp;nbsp;not&amp;nbsp;match!&lt;/span&gt;&lt;/div&gt;&lt;div&gt;&amp;nbsp;&amp;nbsp;&amp;nbsp;&amp;nbsp;&amp;nbsp;&amp;nbsp;&amp;nbsp;&amp;nbsp;&amp;nbsp;&amp;nbsp;&amp;nbsp;&amp;nbsp;&amp;nbsp;&amp;nbsp;&amp;nbsp;&amp;nbsp;&amp;nbsp;&amp;nbsp;&amp;nbsp;&amp;nbsp;&lt;span style=&quot;color: #c586c0&quot;&gt;return&lt;/span&gt;&amp;nbsp;&lt;span style=&quot;color: #dcdcaa&quot;&gt;done&lt;/span&gt;(&lt;span style=&quot;color: #569cd6&quot;&gt;null&lt;/span&gt;,&amp;nbsp;&lt;span style=&quot;color: #569cd6&quot;&gt;false&lt;/span&gt;,&amp;nbsp;{&amp;nbsp;&lt;span style=&quot;color: #9cdcfe&quot;&gt;message&lt;/span&gt;:&amp;nbsp;&lt;span style=&quot;color: #ce9178&quot;&gt;&quot;Incorrect&amp;nbsp;password&quot;&lt;/span&gt;&amp;nbsp;})&lt;/div&gt;&lt;div&gt;&amp;nbsp;&amp;nbsp;&amp;nbsp;&amp;nbsp;&amp;nbsp;&amp;nbsp;&amp;nbsp;&amp;nbsp;&amp;nbsp;&amp;nbsp;&amp;nbsp;&amp;nbsp;&amp;nbsp;&amp;nbsp;&amp;nbsp;&amp;nbsp;}&lt;/div&gt;&lt;div&gt;&amp;nbsp;&amp;nbsp;&amp;nbsp;&amp;nbsp;&amp;nbsp;&amp;nbsp;&amp;nbsp;&amp;nbsp;&amp;nbsp;&amp;nbsp;&amp;nbsp;&amp;nbsp;})&lt;/div&gt;&lt;br&gt;&lt;div&gt;&amp;nbsp;&amp;nbsp;&amp;nbsp;&amp;nbsp;&amp;nbsp;&amp;nbsp;&amp;nbsp;&amp;nbsp;});&lt;/div&gt;&lt;div&gt;&amp;nbsp;&amp;nbsp;&amp;nbsp;&amp;nbsp;})&lt;/div&gt;&lt;div&gt;);&lt;/div&gt;&lt;br&gt;&lt;/div&gt;&lt;/pre&gt;&lt;/pre&gt;" style="text;html=1;align=center;verticalAlign=middle;resizable=0;points=[];autosize=1;fontSize=25;" vertex="1" parent="48">
                    <mxGeometry y="50" width="770" height="560" as="geometry"/>
                </mxCell>
                <mxCell id="54" value="" style="endArrow=classic;html=1;fontSize=25;exitX=0.808;exitY=0.372;exitDx=0;exitDy=0;exitPerimeter=0;" edge="1" parent="55" source="41" target="48">
                    <mxGeometry width="50" height="50" relative="1" as="geometry">
                        <mxPoint x="400" y="-2420" as="sourcePoint"/>
                        <mxPoint x="730" y="170" as="targetPoint"/>
                        <Array as="points">
                            <mxPoint x="550" y="120"/>
                        </Array>
                    </mxGeometry>
                </mxCell>
            </root>
        </mxGraphModel>
    </diagram>
</mxfile>